HIERARCHY
ROOT hip
{
  OFFSET 0 0 0
  CHANNELS 6 Xposition Yposition Zposition Zrotation Yrotation Xrotation
  JOINT abdomen
  {
    OFFSET 0 20.6881 -0.73152
    CHANNELS 3 Zrotation Xrotation Yrotation
    JOINT chest
    {
      OFFSET 0 11.7043 -0.48768
      CHANNELS 3 Zrotation Xrotation Yrotation
      JOINT neck
      {
        OFFSET 0 22.1894 -2.19456
        CHANNELS 3 Zrotation Xrotation Yrotation
        JOINT head
        {
          OFFSET -0.24384 7.07133 1.2192
          CHANNELS 3 Zrotation Xrotation Yrotation
          JOINT leftEye
          {
            OFFSET 4.14528 8.04674 8.04672
            CHANNELS 3 Zrotation Xrotation Yrotation
            End Site
            {
              OFFSET 1 0 0
            }
          }
          JOINT rightEye
          {
            OFFSET -3.6576 8.04674 8.04672
            CHANNELS 3 Zrotation Xrotation Yrotation
            End Site
            {
              OFFSET 1 0 0
            }
          }
        }
      }
      JOINT rCollar
      {
        OFFSET -2.68224 19.2634 -4.8768
        CHANNELS 3 Zrotation Xrotation Yrotation
        JOINT rShldr
        {
          OFFSET -8.77824 -1.95073 1.46304
          CHANNELS 3 Zrotation Xrotation Yrotation
          JOINT rForeArm
          {
            OFFSET -28.1742 -1.7115 0.48768
            CHANNELS 3 Zrotation Xrotation Yrotation
            JOINT rHand
            {
              OFFSET -22.5879 0.773209 7.07136
              CHANNELS 3 Zrotation Xrotation Yrotation
              JOINT rThumb1
              {
                OFFSET -1.2192 -0.487915 3.41376
                CHANNELS 3 Zrotation Xrotation Yrotation
                JOINT rThumb2
                {
                  OFFSET -3.37035 -0.52449 3.41376
                  CHANNELS 3 Zrotation Xrotation Yrotation
                  End Site
                  {
                    OFFSET -1.78271 -1.18214 1.43049
                  }
                }
              }
              JOINT rIndex1
              {
                OFFSET -7.75947 0.938293 5.60832
                CHANNELS 3 Zrotation Xrotation Yrotation
                JOINT rIndex2
                {
                  OFFSET -2.54057 -0.884171 1.56538
                  CHANNELS 3 Zrotation Xrotation Yrotation
                  End Site
                  {
                    OFFSET -1.62519 -0.234802 1.16502
                  }
                }
              }
              JOINT rMid1
              {
                OFFSET -8.24714 1.18213 3.41376
                CHANNELS 3 Zrotation Xrotation Yrotation
                JOINT rMid2
                {
                  OFFSET -3.10165 -0.590103 1.0647
                  CHANNELS 3 Zrotation Xrotation Yrotation
                  End Site
                  {
                    OFFSET -2.48547 -0.328903 0.83742
                  }
                }
              }
              JOINT rRing1
              {
                OFFSET -8.82822 0.546677 1.51678
                CHANNELS 3 Zrotation Xrotation Yrotation
                JOINT rRing2
                {
                  OFFSET -2.60934 -0.819778 -0.0198488
                  CHANNELS 3 Zrotation Xrotation Yrotation
                  End Site
                  {
                    OFFSET -2.33842 -0.294052 0.168128
                  }
                }
              }
              JOINT rPinky1
              {
                OFFSET -8.27202 -0.0477905 -0.4584
                CHANNELS 3 Zrotation Xrotation Yrotation
                JOINT rPinky2
                {
                  OFFSET -1.82734 -0.647385 -0.700984
                  CHANNELS 3 Zrotation Xrotation Yrotation
                  End Site
                  {
                    OFFSET -1.69225 -0.51767 -0.607171
                  }
                }
              }
            }
          }
        }
      }
      JOINT lCollar
      {
        OFFSET 2.68224 19.2634 -4.8768
        CHANNELS 3 Zrotation Xrotation Yrotation
        JOINT lShldr
        {
          OFFSET 8.77824 -1.95073 1.46304
          CHANNELS 3 Zrotation Xrotation Yrotation
          JOINT lForeArm
          {
            OFFSET 28.1742 -1.7115 0.48768
            CHANNELS 3 Zrotation Xrotation Yrotation
            JOINT lHand
            {
              OFFSET 22.5879 0.773209 7.07136
              CHANNELS 3 Zrotation Xrotation Yrotation
              JOINT lThumb1
              {
                OFFSET 1.2192 -0.487915 3.41376
                CHANNELS 3 Zrotation Xrotation Yrotation
                JOINT lThumb2
                {
                  OFFSET 3.37035 -0.52449 3.41376
                  CHANNELS 3 Zrotation Xrotation Yrotation
                  End Site
                  {
                    OFFSET 1.78271 -1.18214 1.43049
                  }
                }
              }
              JOINT lIndex1
              {
                OFFSET 7.75947 0.938293 5.60832
                CHANNELS 3 Zrotation Xrotation Yrotation
                JOINT lIndex2
                {
                  OFFSET 2.54057 -0.884171 1.56538
                  CHANNELS 3 Zrotation Xrotation Yrotation
                  End Site
                  {
                    OFFSET 1.62519 -0.234802 1.16502
                  }
                }
              }
              JOINT lMid1
              {
                OFFSET 8.24714 1.18213 3.41376
                CHANNELS 3 Zrotation Xrotation Yrotation
                JOINT lMid2
                {
                  OFFSET 3.10165 -0.590103 1.0647
                  CHANNELS 3 Zrotation Xrotation Yrotation
                  End Site
                  {
                    OFFSET 2.48547 -0.328903 0.83742
                  }
                }
              }
              JOINT lRing1
              {
                OFFSET 8.82822 0.546677 1.51678
                CHANNELS 3 Zrotation Xrotation Yrotation
                JOINT lRing2
                {
                  OFFSET 2.60934 -0.819778 -0.0198488
                  CHANNELS 3 Zrotation Xrotation Yrotation
                  End Site
                  {
                    OFFSET 2.33842 -0.294052 0.168128
                  }
                }
              }
              JOINT lPinky1
              {
                OFFSET 8.27202 -0.0477905 -0.4584
                CHANNELS 3 Zrotation Xrotation Yrotation
                JOINT lPinky2
                {
                  OFFSET 1.82734 -0.647385 -0.700984
                  CHANNELS 3 Zrotation Xrotation Yrotation
                  End Site
                  {
                    OFFSET 1.69225 -0.51767 -0.607171
                  }
                }
              }
            }
          }
        }
      }
    }
  }
  JOINT rButtock
  {
    OFFSET -8.77824 4.35084 1.2192
    CHANNELS 3 Zrotation Xrotation Yrotation
    JOINT rThigh
    {
      OFFSET 0 -1.70687 -2.19456
      CHANNELS 3 Zrotation Xrotation Yrotation
      JOINT rShin
      {
        OFFSET 0 -36.8199 0.73152
        CHANNELS 3 Zrotation Xrotation Yrotation
        JOINT rFoot
        {
          OFFSET 0.73152 -45.1104 -5.12064
          CHANNELS 3 Zrotation Xrotation Yrotation
          End Site
          {
            OFFSET -1.1221 -3.69964 12.103
          }
        }
      }
    }
  }
  JOINT lButtock
  {
    OFFSET 8.77824 4.35084 1.2192
    CHANNELS 3 Zrotation Xrotation Yrotation
    JOINT lThigh
    {
      OFFSET 0 -1.70687 -2.19456
      CHANNELS 3 Zrotation Xrotation Yrotation
      JOINT lShin
      {
        OFFSET 0 -36.8199 0.73152
        CHANNELS 3 Zrotation Xrotation Yrotation
        JOINT lFoot
        {
          OFFSET -0.73152 -45.1104 -5.12064
          CHANNELS 3 Zrotation Xrotation Yrotation
          End Site
          {
            OFFSET 1.1221 -3.69964 12.103
          }
        }
      }
    }
  }
}
MOTION
Frames:	6
Frame Time:	0.00833333
59.3801 111.758 28.7267 -159.384 6.5303 158.068 13.9043 9.40001 -26.4254 5.32918 4.2711 -7.76234 1.01271 15.4392 -10.8804 -4.72448 -21.6592 -22.0343 -0.0 0.0 0.0 -0.0 0.0 0.0 3.92207e-13 4.75944e-13 6.67047e-14 -23.6117 -44.3017 15.8596 -20.7444 -13.9732 40.5344 -0.363319 -16.8878 -2.44547 2.62304e-10 -6.46465e-10 2.093e-09 4.15022e-10 -1.12321e-09 3.63111e-09 2.62308e-10 -6.46468e-10 2.09299e-09 7.73091 5.47488 0.417314 2.62306e-10 -6.46471e-10 2.093e-09 2.90554 0.965183 0.102902 2.6231e-10 -6.46471e-10 2.093e-09 10.2786 0.731801 0.0259123 2.623e-10 -6.46469e-10 2.093e-09 2.22167 -0.733487 -0.20892 3.92088e-13 4.7596e-13 6.64667e-14 -20.0716 -22.5733 -77.0987 14.2002 -7.0886 -26.0483 0.111446 -9.55239 1.35487 8.03819e-10 -4.39193e-09 1.74571e-09 1.36973e-09 -7.59162e-09 3.03397e-09 8.03806e-10 -4.39192e-09 1.74571e-09 -7.73091 5.47488 -0.417314 8.03815e-10 -4.39192e-09 1.7457e-09 -2.90554 0.965183 -0.102902 8.03819e-10 -4.39192e-09 1.74571e-09 -10.2786 0.731801 -0.0259123 8.03823e-10 -4.39192e-09 1.74571e-09 -2.22167 -0.733487 0.20892 -2.03217e-16 0.0 -3.88251e-19 -92.3824 -44.603 -55.7558 -2.17507 72.439 3.35931 -9.02141 -16.1076 -23.6749 2.03217e-16 0.0 3.88251e-19 26.0319 0.799187 14.3087 0.196451 33.8043 -0.758951 -5.22984 15.7008 21.2066
59.5791 113.093 29.8921 -159.576 10.0709 157.767 14.9156 10.311 -27.5342 5.86346 4.30027 -7.52939 0.0759111 16.0123 -10.6447 -4.73967 -20.1691 -21.3067 -0.0 0.0 0.0 -0.0 0.0 0.0 2.94846e-13 2.27893e-13 1.73663e-13 -19.8021 -45.4927 21.1278 -20.7902 -14.0336 40.6541 -0.381894 -17.2875 -2.50719 2.85034e-10 -8.30316e-10 1.90693e-09 4.54135e-10 -1.44287e-09 3.30881e-09 2.85038e-10 -8.30317e-10 1.90692e-09 7.73091 5.47488 0.417314 2.85036e-10 -8.3032e-10 1.90693e-09 2.90554 0.965183 0.102902 2.85039e-10 -8.3032e-10 1.90693e-09 10.2786 0.731801 0.0259123 2.85032e-10 -8.30315e-10 1.90694e-09 2.22167 -0.733487 -0.20892 2.94716e-13 2.2792e-13 1.73424e-13 -22.1141 -23.6083 -76.6844 13.2149 -6.32207 -24.052 0.0880403 -8.52534 1.20674 -5.34657e-10 -2.34569e-09 1.16312e-09 -9.36489e-10 -4.05637e-09 2.01735e-09 -5.34667e-10 -2.34568e-09 1.16313e-09 -7.73091 5.47488 -0.417314 -5.3466e-10 -2.34568e-09 1.16312e-09 -2.90554 0.965183 -0.102902 -5.34661e-10 -2.34568e-09 1.16312e-09 -10.2786 0.731801 -0.0259123 -5.34655e-10 -2.34568e-09 1.16312e-09 -2.22167 -0.733487 0.20892 -2.03217e-16 0.0 -3.88251e-19 -92.1255 -44.6958 -55.8946 -2.12181 72.1188 3.29162 -8.8699 -17.4012 -22.4365 2.03217e-16 0.0 3.88251e-19 27.6729 -1.09295 17.1301 0.238162 37.4509 -0.886427 -3.98363 12.7027 20.7601
59.8069 114.451 31.118 -159.578 13.7709 157.457 15.9728 11.3919 -28.5242 6.35533 4.30523 -7.22971 -0.899752 16.5454 -10.3709 -4.74014 -18.5635 -20.4812 -0.0 0.0 0.0 -0.0 0.0 0.0 1.70552e-13 -8.87876e-14 2.55078e-13 -15.5369 -46.2015 26.6451 -20.7744 -14.0142 40.6077 -0.408507 -17.8538 -2.59489 4.83033e-11 -8.98477e-10 1.59128e-09 4.80059e-11 -1.56055e-09 2.7575e-09 4.83067e-11 -8.98477e-10 1.59127e-09 7.73091 5.47488 0.417314 4.8304e-11 -8.9848e-10 1.59129e-09 2.90554 0.965183 0.102902 4.83065e-11 -8.98479e-10 1.59129e-09 10.2786 0.731801 0.0259123 4.83025e-11 -8.98473e-10 1.59131e-09 2.22167 -0.733487 -0.20892 1.70405e-13 -8.87527e-14 2.54833e-13 -23.8209 -24.629 -75.9976 12.3541 -5.70596 -22.2992 0.0655514 -7.3215 1.03444 -2.03086e-09 2.34493e-10 7.92467e-10 -3.51474e-09 4.01936e-10 1.36686e-09 -2.03086e-09 2.34497e-10 7.92481e-10 -7.73091 5.47488 -0.417314 -2.03086e-09 2.34497e-10 7.92469e-10 -2.90554 0.965183 -0.102902 -2.03086e-09 2.34497e-10 7.92471e-10 -10.2786 0.731801 -0.0259123 -2.03086e-09 2.345e-10 7.92463e-10 -2.22167 -0.733487 0.20892 -2.03217e-16 0.0 -3.88251e-19 -91.1718 -44.9011 -55.5074 -2.04082 71.6092 3.19383 -8.45615 -18.4114 -20.9889 2.03217e-16 0.0 3.88251e-19 29.5467 -2.99285 19.7137 0.290817 40.7151 -1.02101 -2.0868 7.82539 20.1818
59.9135 115.715 32.4248 -159.963 17.2393 157.262 16.9583 12.5903 -28.9987 6.61293 4.37656 -6.91676 -1.46311 16.8312 -10.1364 -4.84927 -16.8606 -19.7518 -0.0 0.0 0.0 -0.0 0.0 0.0 2.87056e-14 -4.27803e-13 2.48183e-13 -11.2227 -46.4387 31.6696 -20.6983 -13.9162 40.4033 -0.439928 -18.518 -2.6981 -5.30749e-10 -6.77197e-10 1.09039e-09 -9.43101e-10 -1.17346e-09 1.8788e-09 -5.30746e-10 -6.77197e-10 1.09038e-09 7.73091 5.47488 0.417314 -5.30749e-10 -6.77198e-10 1.0904e-09 2.90554 0.965183 0.102902 -5.30746e-10 -6.77198e-10 1.0904e-09 10.2786 0.731801 0.0259123 -5.30749e-10 -6.77191e-10 1.09042e-09 2.22167 -0.733487 -0.20892 2.8546e-14 -4.27767e-13 2.47934e-13 -24.9965 -25.5674 -75.4594 11.6048 -5.17531 -20.8475 0.0464756 -6.14091 0.866402 -3.27456e-09 3.0254e-09 1.00762e-09 -5.65785e-09 5.22522e-09 1.73195e-09 -3.27457e-09 3.0254e-09 1.00763e-09 -7.73091 5.47488 -0.417314 -3.27456e-09 3.0254e-09 1.00762e-09 -2.90554 0.965183 -0.102902 -3.27457e-09 3.0254e-09 1.00762e-09 -10.2786 0.731801 -0.0259123 -3.27456e-09 3.0254e-09 1.00761e-09 -2.22167 -0.733487 0.20892 -2.03217e-16 0.0 -3.88251e-19 -89.6922 -45.0397 -54.841 -1.95344 71.053 3.11041 -8.18411 -19.1604 -20.0776 2.03217e-16 0.0 3.88251e-19 31.5677 -4.91057 21.6765 0.341752 43.1029 -1.13062 -0.602503 3.81457 19.8444
59.9924 116.95 33.793 -160.434 20.7408 157.092 17.9385 13.9959 -28.7601 6.52405 4.55454 -6.57708 -1.42024 16.7339 -9.96911 -5.09943 -14.961 -19.169 -0.0 0.0 0.0 -0.0 0.0 0.0 -1.74607e-13 -8.83003e-13 7.78106e-14 -7.02634 -46.322 35.8788 -20.5566 -13.7276 40.0495 -0.479062 -19.3097 -2.82217 -1.86097e-09 1.38277e-10 1.6756e-10 -3.21838e-09 2.49934e-10 2.54877e-10 -1.86097e-09 1.38278e-10 1.67551e-10 7.73091 5.47488 0.417314 -1.86097e-09 1.38277e-10 1.67564e-10 2.90554 0.965183 0.102902 -1.86097e-09 1.38278e-10 1.67571e-10 10.2786 0.731801 0.0259123 -1.86097e-09 1.38284e-10 1.67584e-10 2.22167 -0.733487 -0.20892 -1.74773e-13 -8.82976e-13 7.75598e-14 -25.364 -26.3832 -75.1573 11.0164 -4.76204 -19.7615 0.0282667 -4.93873 0.695788 -4.31458e-09 6.86514e-09 2.44161e-09 -7.44967e-09 1.18627e-08 4.20768e-09 -4.31459e-09 6.86514e-09 2.44163e-09 -7.73091 5.47488 -0.417314 -4.31458e-09 6.86513e-09 2.44161e-09 -2.90554 0.965183 -0.102902 -4.31459e-09 6.86514e-09 2.44161e-09 -10.2786 0.731801 -0.0259123 -4.31458e-09 6.86514e-09 2.4416e-09 -2.22167 -0.733487 0.20892 -2.03217e-16 0.0 -3.88251e-19 -87.426 -45.1613 -53.7813 -1.84925 70.3988 3.03721 -8.14256 -19.5187 -19.895 2.03217e-16 0.0 3.88251e-19 33.6956 -6.86187 22.8473 0.372686 44.4164 -1.19492 0.430369 0.947586 19.7707
60.1326 118.19 35.2068 -160.623 24.3236 156.88 18.8893 15.6308 -28.0511 6.20938 4.78559 -6.19131 -1.03219 16.3903 -9.82626 -5.42758 -12.8904 -18.6363 -0.0 0.0 0.0 -0.0 0.0 0.0 -4.28917e-13 -1.44368e-12 -2.03087e-13 -2.90873 -45.9181 39.5676 -20.3459 -13.4474 39.5416 -0.529532 -20.2492 -2.9715 -3.76925e-09 1.36914e-09 -1.07357e-09 -6.48267e-09 2.39788e-09 -1.93127e-09 -3.76925e-09 1.36914e-09 -1.07358e-09 7.73091 5.47488 0.417314 -3.76925e-09 1.36914e-09 -1.07357e-09 2.90554 0.965183 0.102902 -3.76925e-09 1.36914e-09 -1.07356e-09 10.2786 0.731801 0.0259123 -3.76925e-09 1.36914e-09 -1.07355e-09 2.22167 -0.733487 -0.20892 -4.29088e-13 -1.44367e-12 -2.03341e-13 -25.1036 -27.1158 -74.8684 10.611 -4.50295 -18.9879 0.0132164 -3.64099 0.512277 -5.31697e-09 1.1618e-08 4.71727e-09 -9.17656e-09 2.00793e-08 8.14039e-09 -5.31697e-09 1.1618e-08 4.71728e-09 -7.73091 5.47488 -0.417314 -5.31697e-09 1.1618e-08 4.71726e-09 -2.90554 0.965183 -0.102902 -5.31697e-09 1.1618e-08 4.71727e-09 -10.2786 0.731801 -0.0259123 -5.31696e-09 1.1618e-08 4.71726e-09 -2.22167 -0.733487 0.20892 -2.03217e-16 0.0 -3.88251e-19 -84.3792 -45.3014 -52.2421 -1.72598 69.6003 2.95975 -8.154 -19.5121 -20.0489 2.03217e-16 0.0 3.88251e-19 35.8873 -8.87067 23.4592 0.381846 44.9413 -1.22421 1.51307 -2.08395 19.8073
